<?xml version="1.0" encoding="utf-8"?>
<!-- Generator: Adobe Illustrator 22.0.1, SVG Export Plug-In . SVG Version: 6.00 Build 0)  -->
<svg version="1.1" id="Layer_1" xmlns="http://www.w3.org/2000/svg" xmlns:xlink="http://www.w3.org/1999/xlink" x="0px" y="0px"
	 viewBox="0 0 2241 1149" style="enable-background:new 0 0 2241 1149;" xml:space="preserve">
<style type="text/css">
	.st0{fill:#FFFFFF;}
	.st1{fill:#FFFFFF;stroke:#000000;stroke-width:5;stroke-linecap:round;stroke-linejoin:round;stroke-miterlimit:10;}
</style>
<g>
	<path class="st0" d="M949.7,406.3c-0.7,0-1.4-0.3-2-0.8l-17.9-16.8c-1.2-1.1-1.2-3-0.1-4.2c1.1-1.2,3-1.2,4.2-0.1l17.9,16.8
		c1.2,1.1,1.2,3,0.1,4.2C951.2,406,950.5,406.3,949.7,406.3z"/>
	<path class="st0" d="M932.3,406.9c-0.7,0-1.4-0.3-2-0.8c-1.2-1.1-1.2-3-0.1-4.2L947,384c1.1-1.2,3-1.2,4.2-0.1
		c1.2,1.1,1.2,3,0.1,4.2l-16.8,17.9C933.9,406.6,933.1,406.9,932.3,406.9z"/>
</g>
<g>
	<path class="st0" d="M93.8,913.7c-0.7,0-1.4-0.3-2-0.8L73.9,896c-1.2-1.1-1.2-3-0.1-4.2c1.1-1.2,3-1.2,4.2-0.1l17.9,16.8
		c1.2,1.1,1.2,3,0.1,4.2C95.4,913.3,94.6,913.7,93.8,913.7z"/>
	<path class="st0" d="M76.4,914.2c-0.7,0-1.4-0.3-2-0.8c-1.2-1.1-1.2-3-0.1-4.2l16.8-17.9c1.1-1.2,3-1.2,4.2-0.1
		c1.2,1.1,1.2,3,0.1,4.2l-16.8,17.9C78,913.9,77.2,914.2,76.4,914.2z"/>
</g>
<g>
	<path class="st0" d="M634.2,787.1c-0.7,0-1.4-0.3-2-0.8l-17.9-16.8c-1.2-1.1-1.2-3-0.1-4.2c1.1-1.2,3-1.2,4.2-0.1l17.9,16.8
		c1.2,1.1,1.2,3,0.1,4.2C635.8,786.8,635,787.1,634.2,787.1z"/>
	<path class="st0" d="M616.8,787.7c-0.7,0-1.4-0.3-2-0.8c-1.2-1.1-1.2-3-0.1-4.2l16.8-17.9c1.1-1.2,3-1.2,4.2-0.1
		c1.2,1.1,1.2,3,0.1,4.2L619,786.8C618.4,787.4,617.6,787.7,616.8,787.7z"/>
</g>
<g>
	<path class="st0" d="M381.7,397.5c-0.7,0-1.4-0.3-2-0.8l-17.9-16.8c-1.2-1.1-1.2-3-0.1-4.2c1.1-1.2,3-1.2,4.2-0.1l17.9,16.8
		c1.2,1.1,1.2,3,0.1,4.2C383.3,397.1,382.5,397.5,381.7,397.5z"/>
	<path class="st0" d="M364.4,398c-0.7,0-1.4-0.3-2-0.8c-1.2-1.1-1.2-3-0.1-4.2l16.8-17.9c1.1-1.2,3-1.2,4.2-0.1
		c1.2,1.1,1.2,3,0.1,4.2l-16.8,17.9C365.9,397.7,365.2,398,364.4,398z"/>
</g>
<g>
	<path class="st0" d="M1944.5,471.9c-0.7,0-1.4-0.3-2-0.8l-17.9-16.8c-1.2-1.1-1.2-3-0.1-4.2c1.1-1.2,3-1.2,4.2-0.1l17.9,16.8
		c1.2,1.1,1.2,3,0.1,4.2C1946.1,471.6,1945.3,471.9,1944.5,471.9z"/>
	<path class="st0" d="M1927.1,472.5c-0.7,0-1.4-0.3-2-0.8c-1.2-1.1-1.2-3-0.1-4.2l16.8-17.9c1.1-1.2,3-1.2,4.2-0.1
		c1.2,1.1,1.2,3,0.1,4.2l-16.8,17.9C1928.7,472.1,1927.9,472.5,1927.1,472.5z"/>
</g>
<g>
	<path class="st0" d="M560.6,274.5c-0.7,0-1.4-0.3-2-0.8l-17.9-16.8c-1.2-1.1-1.2-3-0.1-4.2c1.1-1.2,3-1.2,4.2-0.1l17.9,16.8
		c1.2,1.1,1.2,3,0.1,4.2C562.1,274.2,561.4,274.5,560.6,274.5z"/>
	<path class="st0" d="M543.2,275c-0.7,0-1.4-0.3-2-0.8c-1.2-1.1-1.2-3-0.1-4.2l16.8-17.9c1.1-1.2,3-1.2,4.2-0.1
		c1.2,1.1,1.2,3,0.1,4.2l-16.8,17.9C544.8,274.7,544,275,543.2,275z"/>
</g>
<g>
	<path class="st0" d="M1735.5,781.5c-0.7,0-1.4-0.3-2-0.8l-17.9-16.8c-1.2-1.1-1.2-3-0.1-4.2c1.1-1.2,3-1.2,4.2-0.1l17.9,16.8
		c1.2,1.1,1.2,3,0.1,4.2C1737.1,781.2,1736.3,781.5,1735.5,781.5z"/>
	<path class="st0" d="M1718.1,782.1c-0.7,0-1.4-0.3-2-0.8c-1.2-1.1-1.2-3-0.1-4.2l16.8-17.9c1.1-1.2,3-1.2,4.2-0.1
		c1.2,1.1,1.2,3,0.1,4.2l-16.8,17.9C1719.7,781.8,1718.9,782.1,1718.1,782.1z"/>
</g>
<g>
	<path class="st0" d="M1492.7,1100.2c-0.7,0-1.4-0.3-2-0.8l-17.9-16.8c-1.2-1.1-1.2-3-0.1-4.2c1.1-1.2,3-1.2,4.2-0.1l17.9,16.8
		c1.2,1.1,1.2,3,0.1,4.2C1494.3,1099.9,1493.5,1100.2,1492.7,1100.2z"/>
	<path class="st0" d="M1475.4,1100.8c-0.7,0-1.4-0.3-2-0.8c-1.2-1.1-1.2-3-0.1-4.2l16.8-17.9c1.1-1.2,3-1.2,4.2-0.1
		c1.2,1.1,1.2,3,0.1,4.2l-16.8,17.9C1476.9,1100.5,1476.1,1100.8,1475.4,1100.8z"/>
</g>
<path class="st0" d="M527,106.8c-1,0-2-0.6-2.5-1.5c-0.5-0.9-0.5-2,0-2.9L549,59.7c0.5-0.9,1.5-1.5,2.5-1.5c0,0,0,0,0,0
	c1,0,2,0.6,2.5,1.5l24.7,42.7c0.5,0.9,0.5,2,0,2.9c-0.5,0.9-1.5,1.5-2.5,1.5L527,106.8C527,106.8,527,106.8,527,106.8z M551.6,67
	L532,100.9l39.1,0L561.4,84l0,0L551.6,67z"/>
<path class="st0" d="M527,578.3c-1,0-2-0.6-2.5-1.5c-0.5-0.9-0.5-2,0-2.9l24.6-42.7c0.5-0.9,1.5-1.5,2.5-1.5c0,0,0,0,0,0
	c1,0,2,0.6,2.5,1.5l12.3,21.4c0,0,0,0,0,0l12.3,21.4c0.5,0.9,0.5,2,0,2.9c-0.5,0.9-1.5,1.5-2.5,1.5L527,578.3
	C527,578.3,527,578.3,527,578.3z M551.6,538.5L532,572.5l39.1,0L551.6,538.5z"/>
<path class="st0" d="M1527.3,921c-1,0-2-0.6-2.5-1.5c-0.5-0.9-0.5-2,0-2.9l24.6-42.7c0.5-0.9,1.5-1.5,2.5-1.5c0,0,0,0,0,0
	c1,0,2,0.6,2.5,1.5l24.7,42.7c0.5,0.9,0.5,2,0,2.9c-0.5,0.9-1.5,1.5-2.5,1.5L1527.3,921C1527.3,921,1527.3,921,1527.3,921z
	 M1552,881.2l-19.5,33.9l39.1,0l-9.8-16.9l0,0L1552,881.2z"/>
<path class="st0" d="M1475.2,697.9c-0.8,0-1.5-0.3-2.1-0.9l-34.9-34.9c-0.7-0.7-1-1.8-0.8-2.8c0.3-1,1.1-1.8,2.1-2.1l47.6-12.8
	c1-0.3,2.1,0,2.8,0.8c0.7,0.7,1,1.8,0.8,2.8l-12.7,47.7c-0.3,1-1.1,1.8-2.1,2.1C1475.7,697.8,1475.4,697.9,1475.2,697.9z
	 M1446,661.6l27.7,27.7l5.1-18.9c0,0,0,0,0,0l5.1-18.9L1446,661.6z"/>
<path class="st0" d="M399.8,270.6c-0.8,0-1.5-0.3-2.1-0.9l-34.9-34.9c-0.7-0.7-1-1.8-0.8-2.8c0.3-1,1.1-1.8,2.1-2.1l47.6-12.8
	c1-0.3,2.1,0,2.8,0.8c0.7,0.7,1,1.8,0.8,2.8l-6.4,23.8h0l-6.4,23.8c-0.3,1-1.1,1.8-2.1,2.1C400.3,270.6,400,270.6,399.8,270.6z
	 M370.6,234.3l27.7,27.7l5.1-18.9c0,0,0,0,0,0l5.1-18.9L370.6,234.3z"/>
<path class="st0" d="M748,1055.4c-0.8,0-1.5-0.3-2.1-0.9l-34.9-34.9c-0.7-0.7-1-1.8-0.8-2.8c0.3-1,1.1-1.8,2.1-2.1L760,1002
	c1-0.3,2.1,0,2.8,0.8c0.7,0.7,1,1.8,0.8,2.8l-12.7,47.7c-0.3,1-1.1,1.8-2.1,2.1C748.5,1055.4,748.2,1055.4,748,1055.4z
	 M718.8,1019.2l27.7,27.7l5.1-18.9l0,0l5.1-18.9L718.8,1019.2z"/>
<path class="st0" d="M1749.6,197.7c-0.5,0-1-0.1-1.5-0.4c-0.9-0.5-1.5-1.5-1.5-2.5l0-49.3c0-1.1,0.6-2,1.5-2.5c0.9-0.5,2-0.5,2.9,0
	l42.7,24.6c0.9,0.5,1.5,1.5,1.5,2.5s-0.6,2-1.5,2.5l-42.7,24.7C1750.6,197.6,1750.1,197.7,1749.6,197.7z M1752.5,150.5l0,39.1
	l16.9-9.8h0l16.9-9.8L1752.5,150.5z"/>
<path class="st0" d="M157.7,742c-0.5,0-1-0.1-1.5-0.4c-0.9-0.5-1.5-1.5-1.5-2.5l0-49.3c0-1.1,0.6-2,1.5-2.5c0.9-0.5,2-0.5,2.9,0
	l42.7,24.6c0.9,0.5,1.5,1.5,1.5,2.5c0,1.1-0.6,2-1.5,2.5l-21.4,12.3h0l-21.3,12.3C158.7,741.8,158.2,742,157.7,742z M160.6,694.8
	l0,39.1l16.9-9.8c0,0,0,0,0,0l16.9-9.8L160.6,694.8z"/>
<path class="st0" d="M1234.2,548.4c-11.9,0-21.7-9.7-21.7-21.7s9.7-21.7,21.7-21.7c11.9,0,21.6,9.7,21.6,21.7
	S1246.1,548.4,1234.2,548.4z M1234.2,510.9c-8.7,0-15.8,7.1-15.8,15.8s7.1,15.8,15.8,15.8c8.7,0,15.8-7.1,15.8-15.8
	S1242.9,510.9,1234.2,510.9z"/>
<path class="st0" d="M1167.3,200.8c-11.9,0-21.7-9.7-21.7-21.7s9.7-21.7,21.7-21.7c11.9,0,21.6,9.7,21.6,21.7
	S1179.3,200.8,1167.3,200.8z M1167.3,163.4c-8.7,0-15.8,7.1-15.8,15.8c0,8.7,7.1,15.8,15.8,15.8c8.7,0,15.8-7.1,15.8-15.8
	C1183.1,170.4,1176,163.4,1167.3,163.4z"/>
<path class="st0" d="M1090.6,918.4c-11.9,0-21.7-9.7-21.7-21.7c0-11.9,9.7-21.6,21.7-21.6c11.9,0,21.7,9.7,21.7,21.6
	C1112.3,908.6,1102.6,918.4,1090.6,918.4z M1090.6,880.9c-8.7,0-15.8,7.1-15.8,15.8c0,8.7,7.1,15.8,15.8,15.8
	c8.7,0,15.8-7.1,15.8-15.8C1106.4,888,1099.3,880.9,1090.6,880.9z"/>
<path class="st0" d="M1142.6,1101.2c-1.6,0-2.9-1.3-2.9-2.9c0-8.7-7.1-15.8-15.8-15.8s-15.8,7.1-15.8,15.8c0,1.6-1.3,2.9-2.9,2.9
	s-2.9-1.3-2.9-2.9c0-11.9,9.7-21.6,21.7-21.6s21.7,9.7,21.7,21.6C1145.5,1099.8,1144.2,1101.2,1142.6,1101.2z"/>
<path class="st0" d="M707.2,424.2c-1.6,0-2.9-1.3-2.9-2.9c0-8.7-7.1-15.8-15.8-15.8c-8.7,0-15.8,7.1-15.8,15.8
	c0,1.6-1.3,2.9-2.9,2.9s-2.9-1.3-2.9-2.9c0-11.9,9.7-21.7,21.7-21.7c11.9,0,21.7,9.7,21.7,21.7C710.1,422.9,708.8,424.2,707.2,424.2
	z"/>
<path class="st0" d="M207.8,373.8c-1.6,0-2.9-1.3-2.9-2.9c0-8.7-7-15.8-15.7-15.8c-8.6,0-15.7,7.1-15.7,15.8c0,1.6-1.3,2.9-2.9,2.9
	c-1.6,0-2.9-1.3-2.9-2.9c0-11.9,9.7-21.7,21.6-21.7c11.9,0,21.6,9.7,21.6,21.7C210.7,372.5,209.4,373.8,207.8,373.8z"/>
<path class="st0" d="M2083.3,157.5c-11.9,0-21.7-9.7-21.7-21.6c0-11.9,9.7-21.6,21.7-21.6c1.6,0,2.9,1.3,2.9,2.9s-1.3,2.9-2.9,2.9
	c-8.7,0-15.8,7-15.8,15.7c0,8.6,7.1,15.7,15.8,15.7c1.6,0,2.9,1.3,2.9,2.9C2086.2,156.2,2084.9,157.5,2083.3,157.5z"/>
<path class="st0" d="M518,1098.1c-11.9,0-21.7-9.7-21.7-21.6c0-11.9,9.7-21.6,21.7-21.6c1.6,0,2.9,1.3,2.9,2.9s-1.3,2.9-2.9,2.9
	c-8.7,0-15.8,7-15.8,15.7c0,8.6,7.1,15.7,15.8,15.7c1.6,0,2.9,1.3,2.9,2.9S519.6,1098.1,518,1098.1z"/>
<path class="st0" d="M873.2,157.5c-11.9,0-21.7-9.7-21.7-21.6c0-11.9,9.7-21.6,21.7-21.6c1.6,0,2.9,1.3,2.9,2.9s-1.3,2.9-2.9,2.9
	c-8.7,0-15.8,7-15.8,15.7c0,8.6,7.1,15.7,15.8,15.7c1.6,0,2.9,1.3,2.9,2.9C876.1,156.2,874.8,157.5,873.2,157.5z"/>
<path class="st0" d="M367,913.4c-11.9,0-21.7-9.7-21.7-21.7c0-11.9,9.7-21.6,21.7-21.6c11.9,0,21.7,9.7,21.7,21.6
	C388.7,903.7,379,913.4,367,913.4z M367,876c-8.7,0-15.8,7.1-15.8,15.8c0,8.7,7.1,15.8,15.8,15.8c8.7,0,15.8-7.1,15.8-15.8
	C382.8,883.1,375.7,876,367,876z"/>
<path class="st0" d="M1957.2,786.2c-11.9,0-21.7-9.7-21.7-21.7c0-11.9,9.7-21.6,21.7-21.6c11.9,0,21.6,9.7,21.6,21.6
	C1978.9,776.5,1969.1,786.2,1957.2,786.2z M1957.2,748.8c-8.7,0-15.8,7.1-15.8,15.8c0,8.7,7.1,15.8,15.8,15.8
	c8.7,0,15.8-7.1,15.8-15.8C1973,755.9,1965.9,748.8,1957.2,748.8z"/>
<path class="st0" d="M1733.3,330.4H1696c-1.6,0-2.9-1.3-2.9-2.9v-37.2c0-1.6,1.3-2.9,2.9-2.9h37.2c1.6,0,2.9,1.3,2.9,2.9v37.2
	C1736.2,329.1,1734.9,330.4,1733.3,330.4z M1699,324.6h31.3v-31.3H1699V324.6z"/>
<path class="st0" d="M1455,433.5h-37.2c-1.6,0-2.9-1.3-2.9-2.9v-37.2c0-1.6,1.3-2.9,2.9-2.9h37.2c1.6,0,2.9,1.3,2.9,2.9v37.2
	C1457.9,432.2,1456.6,433.5,1455,433.5z M1420.7,427.6h31.3v-31.3h-31.3V427.6z"/>
<path class="st0" d="M296.6,1030.5h-37.2c-1.6,0-2.9-1.3-2.9-2.9v-37.2c0-1.6,1.3-2.9,2.9-2.9h37.2c1.6,0,2.9,1.3,2.9,2.9v37.2
	C299.5,1029.2,298.2,1030.5,296.6,1030.5z M262.3,1024.7h31.3v-31.3h-31.3V1024.7z"/>
<path class="st0" d="M2019,1040.6h-37.2c-1.6,0-2.9-1.3-2.9-2.9v-37.2c0-1.6,1.3-2.9,2.9-2.9h37.2c1.6,0,2.9,1.3,2.9,2.9v37.2
	C2022,1039.3,2020.6,1040.6,2019,1040.6z M1984.7,1034.7h31.3v-31.3h-31.3V1034.7z"/>
<path class="st0" d="M1389.2,135.9H1352c-1.6,0-2.9-1.3-2.9-2.9V95.8c0-1.6,1.3-2.9,2.9-2.9h37.2c1.6,0,2.9,1.3,2.9,2.9V133
	C1392.2,134.6,1390.8,135.9,1389.2,135.9z M1354.9,130h31.3V98.7h-31.3V130z"/>
<g>
	<path class="st0" d="M966.9,767.7c-5.6,0-8-4.5-9.9-8.1c-2.1-3.9-3.6-6.3-7.2-6.3c-1.6,0-2.9-1.3-2.9-2.9c0-1.6,1.3-2.9,2.9-2.9
		c7.3,0,10.2,5.4,12.3,9.4c1.9,3.6,2.9,5,4.8,5c1.6,0,2.9,1.3,2.9,2.9S968.5,767.7,966.9,767.7z"/>
	<path class="st0" d="M1001.1,767.7c-5.6,0-8-4.5-9.9-8.1c-2.2-4-3.6-6.3-7.2-6.3c-1.6,0-2.9-1.3-2.9-2.9c0-1.6,1.3-2.9,2.9-2.9
		c7.3,0,10.2,5.4,12.3,9.4c1.9,3.6,2.9,5,4.8,5c1.6,0,2.9,1.3,2.9,2.9S1002.7,767.7,1001.1,767.7z"/>
	<path class="st0" d="M966.9,767.7c-1.6,0-2.9-1.3-2.9-2.9s1.3-2.9,2.9-2.9c1.9,0,2.8-1.4,4.8-5c2.1-4,5.1-9.4,12.3-9.4
		c1.6,0,2.9,1.3,2.9,2.9c0,1.6-1.3,2.9-2.9,2.9c-3.6,0-5,2.4-7.2,6.3C974.9,763.2,972.5,767.7,966.9,767.7z"/>
	<path class="st1" d="M1018.2,750.3"/>
	<path class="st0" d="M1001.1,767.7c-1.6,0-2.9-1.3-2.9-2.9s1.3-2.9,2.9-2.9c1.9,0,2.8-1.4,4.8-5c2.1-4,5.1-9.4,12.3-9.4
		c1.6,0,2.9,1.3,2.9,2.9c0,1.6-1.3,2.9-2.9,2.9c-3.6,0-5,2.4-7.2,6.3C1009.1,763.2,1006.7,767.7,1001.1,767.7z"/>
</g>
<g>
	<path class="st0" d="M1316.4,958.1c-5.6,0-8-4.5-9.9-8.1c-2.1-3.9-3.6-6.3-7.2-6.3c-1.6,0-2.9-1.3-2.9-2.9s1.3-2.9,2.9-2.9
		c7.3,0,10.2,5.4,12.3,9.4c1.9,3.6,2.9,5,4.8,5c1.6,0,2.9,1.3,2.9,2.9C1319.3,956.8,1318,958.1,1316.4,958.1z"/>
	<path class="st0" d="M1350.6,958.1c-5.6,0-8-4.5-9.9-8.1c-2.2-4-3.6-6.3-7.2-6.3c-1.6,0-2.9-1.3-2.9-2.9s1.3-2.9,2.9-2.9
		c7.3,0,10.2,5.4,12.3,9.4c1.9,3.6,2.9,5,4.8,5c1.6,0,2.9,1.3,2.9,2.9C1353.5,956.8,1352.2,958.1,1350.6,958.1z"/>
	<path class="st0" d="M1316.4,958.1c-1.6,0-2.9-1.3-2.9-2.9c0-1.6,1.3-2.9,2.9-2.9c1.9,0,2.8-1.4,4.8-5c2.1-4,5.1-9.4,12.3-9.4
		c1.6,0,2.9,1.3,2.9,2.9s-1.3,2.9-2.9,2.9c-3.6,0-5,2.4-7.2,6.3C1324.4,953.6,1322,958.1,1316.4,958.1z"/>
	<path class="st1" d="M1367.7,940.8"/>
	<path class="st0" d="M1350.6,958.1c-1.6,0-2.9-1.3-2.9-2.9c0-1.6,1.3-2.9,2.9-2.9c1.9,0,2.8-1.4,4.8-5c2.1-4,5.1-9.4,12.3-9.4
		c0,0,0,0,0,0c1.6,0,2.9,1.3,2.9,2.9c0,1.6-1.3,2.9-2.9,2.9c0,0,0,0,0,0h0c-3.6,0-5,2.3-7.2,6.3
		C1358.6,953.6,1356.1,958.1,1350.6,958.1L1350.6,958.1z"/>
</g>
<g>
	<path class="st0" d="M1779.5,634.5c-5.6,0-8-4.5-9.9-8.1c-2.2-4-3.6-6.3-7.2-6.3c-1.6,0-2.9-1.3-2.9-2.9c0-1.6,1.3-2.9,2.9-2.9
		c7.3,0,10.2,5.4,12.3,9.4c1.9,3.6,2.9,5,4.8,5c1.6,0,2.9,1.3,2.9,2.9S1781.1,634.5,1779.5,634.5z"/>
	<path class="st0" d="M1813.6,634.5c-5.6,0-8-4.5-9.9-8.1c-2.2-4-3.6-6.3-7.2-6.3c-1.6,0-2.9-1.3-2.9-2.9s1.3-2.9,2.9-2.9
		c7.3,0,10.2,5.4,12.3,9.4c1.9,3.6,2.9,5,4.8,5c1.6,0,2.9,1.3,2.9,2.9S1815.3,634.5,1813.6,634.5z"/>
	<path class="st0" d="M1779.5,634.5c-1.6,0-2.9-1.3-2.9-2.9s1.3-2.9,2.9-2.9c1.9,0,2.8-1.4,4.8-5c2.1-4,5.1-9.4,12.3-9.4
		c1.6,0,2.9,1.3,2.9,2.9s-1.3,2.9-2.9,2.9c-3.6,0-5,2.4-7.2,6.3C1787.5,630.1,1785,634.5,1779.5,634.5z"/>
	<path class="st1" d="M1830.7,617.2"/>
	<path class="st0" d="M1813.6,634.5c-1.6,0-2.9-1.3-2.9-2.9c0-1.6,1.3-2.9,2.9-2.9c1.9,0,2.8-1.4,4.8-5c2.1-4,5.1-9.4,12.3-9.4
		c0,0,0,0,0,0c1.6,0,2.9,1.3,2.9,2.9c0,1.6-1.3,2.9-2.9,2.9l0,0h0c-3.6,0-5,2.3-7.2,6.3C1821.6,630.1,1819.2,634.5,1813.6,634.5z"/>
</g>
<g>
	<path class="st0" d="M329.9,592.5c-5.6,0-8-4.5-9.9-8.1c-2.2-4-3.6-6.3-7.2-6.3c-1.6,0-2.9-1.3-2.9-2.9s1.3-2.9,2.9-2.9
		c7.3,0,10.2,5.4,12.3,9.4c1.9,3.6,2.9,5,4.8,5c1.6,0,2.9,1.3,2.9,2.9C332.9,591.2,331.5,592.5,329.9,592.5z"/>
	<path class="st0" d="M364.1,592.5c-5.6,0-8-4.5-9.9-8.1c-2.2-4-3.6-6.3-7.2-6.3c-1.6,0-2.9-1.3-2.9-2.9s1.3-2.9,2.9-2.9
		c7.3,0,10.2,5.4,12.3,9.4c1.9,3.6,2.9,5,4.8,5c1.6,0,2.9,1.3,2.9,2.9C367,591.2,365.7,592.5,364.1,592.5z"/>
	<path class="st0" d="M329.9,592.5c-1.6,0-2.9-1.3-2.9-2.9c0-1.6,1.3-2.9,2.9-2.9c1.9,0,2.8-1.4,4.8-5c2.1-4,5.1-9.4,12.3-9.4
		c1.6,0,2.9,1.3,2.9,2.9s-1.3,2.9-2.9,2.9c-3.6,0-5,2.4-7.2,6.3C337.9,588,335.5,592.5,329.9,592.5z"/>
	<path class="st1" d="M381.2,575.2"/>
	<path class="st0" d="M364.1,592.5c-1.6,0-2.9-1.3-2.9-2.9c0-1.6,1.3-2.9,2.9-2.9c1.9,0,2.8-1.4,4.8-5c2.1-4,5.1-9.4,12.3-9.4
		c0,0,0,0,0,0c1.6,0,2.9,1.3,2.9,2.9c0,1.6-1.3,2.9-2.9,2.9c0,0,0,0,0,0h0c-3.6,0-5,2.3-7.2,6.3C372.1,588,369.7,592.5,364.1,592.5z
		"/>
</g>
<g>
	<path class="st0" d="M797.6,671.8c-1.6,0-2.9-1.3-2.9-2.9c0-7.3,5.4-10.2,9.4-12.3c3.6-1.9,5-2.9,5-4.8c0-1.6,1.3-2.9,2.9-2.9
		s2.9,1.3,2.9,2.9c0,5.6-4.5,8-8.1,9.9c-4,2.2-6.3,3.6-6.3,7.2C800.5,670.5,799.2,671.8,797.6,671.8z"/>
	<path class="st0" d="M797.6,637.6c-1.6,0-2.9-1.3-2.9-2.9c0-7.3,5.4-10.2,9.4-12.3c3.6-1.9,5-2.9,5-4.8c0-1.6,1.3-2.9,2.9-2.9
		s2.9,1.3,2.9,2.9c0,5.6-4.5,8-8.1,9.9c-4,2.2-6.3,3.6-6.3,7.2C800.5,636.3,799.2,637.6,797.6,637.6z"/>
	<path class="st0" d="M812,654.7c-1.6,0-2.9-1.3-2.9-2.9c0-1.9-1.4-2.8-5-4.8c-4-2.1-9.4-5.1-9.4-12.3c0-1.6,1.3-2.9,2.9-2.9
		s2.9,1.3,2.9,2.9c0,3.6,2.4,5,6.3,7.2c3.6,1.9,8.1,4.4,8.1,9.9C815,653.4,813.6,654.7,812,654.7z"/>
	<path class="st1" d="M797.6,600.5"/>
	<path class="st0" d="M812,620.5c-1.6,0-2.9-1.3-2.9-2.9c0-1.9-1.4-2.8-5-4.8c-4-2.1-9.4-5.1-9.4-12.3c0-1.6,1.3-2.9,2.9-2.9
		s2.9,1.3,2.9,2.9c0,3.6,2.4,5,6.3,7.2c3.6,1.9,8.1,4.4,8.1,9.9C815,619.2,813.6,620.5,812,620.5z"/>
</g>
<g>
	<path class="st0" d="M171.8,210.2c-1.6,0-2.9-1.3-2.9-2.9c0-7.3,5.4-10.2,9.4-12.3c3.6-1.9,5-2.9,5-4.8c0-1.6,1.3-2.9,2.9-2.9
		c1.6,0,2.9,1.3,2.9,2.9c0,5.6-4.5,8-8.1,9.9c-4,2.2-6.3,3.6-6.3,7.2C174.7,208.9,173.4,210.2,171.8,210.2z"/>
	<path class="st0" d="M171.8,176c-1.6,0-2.9-1.3-2.9-2.9c0-7.3,5.4-10.2,9.4-12.3c3.6-1.9,5-2.9,5-4.8c0-1.6,1.3-2.9,2.9-2.9
		c1.6,0,2.9,1.3,2.9,2.9c0,5.6-4.5,8-8.1,9.9c-4,2.2-6.3,3.6-6.3,7.2C174.7,174.7,173.4,176,171.8,176z"/>
	<path class="st0" d="M186.2,193.1c-1.6,0-2.9-1.3-2.9-2.9c0-1.9-1.4-2.8-5-4.8c-4-2.1-9.4-5.1-9.4-12.3c0-1.6,1.3-2.9,2.9-2.9
		c1.6,0,2.9,1.3,2.9,2.9c0,3.6,2.4,5,6.3,7.2c3.6,1.9,8.1,4.4,8.1,9.9C189.2,191.8,187.8,193.1,186.2,193.1z"/>
	<path class="st1" d="M171.8,138.9"/>
	<path class="st0" d="M186.2,158.9c-1.6,0-2.9-1.3-2.9-2.9c0-1.9-1.4-2.8-5-4.8c-4-2.1-9.4-5.1-9.4-12.3c0-1.6,1.3-2.9,2.9-2.9
		c1.6,0,2.9,1.3,2.9,2.9c0,3.6,2.4,5,6.3,7.2c3.6,1.9,8.1,4.4,8.1,9.9C189.2,157.6,187.8,158.9,186.2,158.9z"/>
</g>
<g>
	<path class="st0" d="M1707.4,1056.1c-1.6,0-2.9-1.3-2.9-2.9c0-7.3,5.4-10.2,9.4-12.3c3.6-1.9,5-2.9,5-4.8c0-1.6,1.3-2.9,2.9-2.9
		s2.9,1.3,2.9,2.9c0,5.6-4.5,8-8.1,9.9c-3.9,2.1-6.3,3.6-6.3,7.2C1710.4,1054.8,1709.1,1056.1,1707.4,1056.1z"/>
	<path class="st0" d="M1707.4,1022c-1.6,0-2.9-1.3-2.9-2.9c0-7.3,5.4-10.2,9.4-12.3c3.6-1.9,5-2.9,5-4.8c0-1.6,1.3-2.9,2.9-2.9
		s2.9,1.3,2.9,2.9c0,5.6-4.5,8-8.1,9.9c-4,2.2-6.3,3.6-6.3,7.2C1710.4,1020.6,1709.1,1022,1707.4,1022z"/>
	<path class="st0" d="M1721.9,1039c-1.6,0-2.9-1.3-2.9-2.9c0-1.9-1.4-2.8-5-4.8c-4-2.1-9.4-5.1-9.4-12.3c0-1.6,1.3-2.9,2.9-2.9
		s2.9,1.3,2.9,2.9c0,3.6,2.4,5,6.3,7.2c3.6,1.9,8.1,4.4,8.1,9.9C1724.8,1037.7,1723.5,1039,1721.9,1039z"/>
	<path class="st1" d="M1707.4,984.8"/>
	<path class="st0" d="M1721.9,1004.9c-1.6,0-2.9-1.3-2.9-2.9c0-1.9-1.4-2.8-5-4.8c-4-2.1-9.4-5.1-9.4-12.3c0-1.6,1.3-2.9,2.9-2.9
		s2.9,1.3,2.9,2.9c0,3.6,2.4,5,6.3,7.2c3.6,1.9,8.1,4.4,8.1,9.9C1724.8,1003.5,1723.5,1004.9,1721.9,1004.9z"/>
</g>
<g>
	<path class="st0" d="M606.1,959.5c-1.6,0-2.9-1.3-2.9-2.9c0-7.3,5.4-10.2,9.4-12.3c3.6-1.9,5-2.9,5-4.8c0-1.6,1.3-2.9,2.9-2.9
		c1.6,0,2.9,1.3,2.9,2.9c0,5.6-4.5,8-8.1,9.9c-4,2.2-6.3,3.6-6.3,7.2C609.1,958.1,607.8,959.5,606.1,959.5z"/>
	<path class="st0" d="M606.1,925.3c-1.6,0-2.9-1.3-2.9-2.9c0-7.3,5.4-10.2,9.4-12.3c3.6-1.9,5-2.9,5-4.8c0-1.6,1.3-2.9,2.9-2.9
		c1.6,0,2.9,1.3,2.9,2.9c0,5.6-4.5,8-8.1,9.9c-4,2.2-6.3,3.6-6.3,7.2C609.1,924,607.8,925.3,606.1,925.3z"/>
	<path class="st0" d="M620.5,942.4c-1.6,0-2.9-1.3-2.9-2.9c0-1.9-1.4-2.8-5-4.8c-4-2.1-9.4-5.1-9.4-12.3c0-1.6,1.3-2.9,2.9-2.9
		s2.9,1.3,2.9,2.9c0,3.6,2.4,5,6.3,7.2c3.6,1.9,8.1,4.4,8.1,9.9C623.5,941.1,622.2,942.4,620.5,942.4z"/>
	<path class="st1" d="M606.1,888.2"/>
	<path class="st0" d="M620.5,908.2c-1.6,0-2.9-1.3-2.9-2.9c0-1.9-1.4-2.8-5-4.8c-4-2.1-9.4-5.1-9.4-12.3c0-1.6,1.3-2.9,2.9-2.9
		s2.9,1.3,2.9,2.9c0,3.6,2.4,5,6.3,7.2c3.6,1.9,8.1,4.4,8.1,9.9C623.5,906.9,622.2,908.2,620.5,908.2z"/>
</g>
<path class="st0" d="M1305.1,657.5h-42.2c-1.6,0-2.9-1.3-2.9-2.9s1.3-2.9,2.9-2.9h42.2c1.6,0,2.9,1.3,2.9,2.9
	S1306.7,657.5,1305.1,657.5z"/>
<path class="st0" d="M88,532.7H45.8c-1.6,0-2.9-1.3-2.9-2.9s1.3-2.9,2.9-2.9H88c1.6,0,2.9,1.3,2.9,2.9S89.6,532.7,88,532.7z"/>
<path class="st0" d="M1188.4,314.8h-42.2c-1.6,0-2.9-1.3-2.9-2.9s1.3-2.9,2.9-2.9h42.2c1.6,0,2.9,1.3,2.9,2.9
	S1190.1,314.8,1188.4,314.8z"/>
<path class="st0" d="M2043,352.1h-42.2c-1.6,0-2.9-1.3-2.9-2.9s1.3-2.9,2.9-2.9h42.2c1.6,0,2.9,1.3,2.9,2.9S2044.7,352.1,2043,352.1
	z"/>
<path class="st0" d="M872.6,913.8h-42.2c-1.6,0-2.9-1.3-2.9-2.9s1.3-2.9,2.9-2.9h42.2c1.6,0,2.9,1.3,2.9,2.9
	S874.2,913.8,872.6,913.8z"/>
<path class="st0" d="M2091.9,903.8c-0.8,0-1.5-0.3-2.1-0.9c-1.1-1.1-1.1-3,0-4.2l29.8-29.8c1.1-1.1,3-1.1,4.2,0c1.1,1.1,1.1,3,0,4.2
	l-29.8,29.8C2093.5,903.5,2092.7,903.8,2091.9,903.8z"/>
<path class="st0" d="M722,279.5c-0.8,0-1.5-0.3-2.1-0.9c-1.1-1.1-1.1-3,0-4.2l29.8-29.8c1.1-1.1,3-1.1,4.2,0c1.1,1.1,1.1,3,0,4.2
	l-29.8,29.8C723.5,279.3,722.7,279.5,722,279.5z"/>
<path class="st0" d="M1616.8,518.4c-0.8,0-1.5-0.3-2.1-0.9c-1.1-1.1-1.1-3,0-4.2l29.8-29.8c1.1-1.1,3-1.1,4.2,0c1.1,1.1,1.1,3,0,4.2
	l-29.8,29.8C1618.3,518.1,1617.5,518.4,1616.8,518.4z"/>
<path class="st0" d="M1223.4,761.6c-0.8,0-1.5-0.1-2.3-0.3c-2.7-0.6-5-2.2-6.4-4.6c-1.5-2.3-1.9-5.1-1.3-7.8c0.6-2.7,2.2-5,4.6-6.4
	c2.3-1.5,5.1-1.9,7.8-1.3c2.7,0.6,5,2.2,6.4,4.6c3,4.8,1.6,11.2-3.2,14.2c0,0,0,0,0,0C1227.2,761.1,1225.3,761.6,1223.4,761.6z
	 M1227.3,757.5L1227.3,757.5L1227.3,757.5z M1223.4,746.9c-0.8,0-1.6,0.2-2.3,0.7c-1,0.6-1.7,1.6-2,2.8c-0.3,1.2-0.1,2.3,0.6,3.3
	c0.6,1,1.6,1.7,2.8,2c1.2,0.3,2.3,0.1,3.3-0.6c2.1-1.3,2.7-4,1.4-6.1c-0.6-1-1.6-1.7-2.8-2C1224,746.9,1223.7,746.9,1223.4,746.9z"
	/>
<path class="st0" d="M998.2,564.3c-0.8,0-1.5-0.1-2.3-0.3c-2.7-0.6-5-2.2-6.4-4.6c-1.5-2.3-1.9-5.1-1.3-7.8c0.6-2.7,2.2-5,4.6-6.4
	c2.3-1.5,5.1-1.9,7.8-1.3c2.7,0.6,5,2.2,6.4,4.6c1.5,2.3,1.9,5.1,1.3,7.8c-0.6,2.7-2.2,5-4.6,6.4c0,0,0,0,0,0
	C1002,563.8,1000.1,564.3,998.2,564.3z M1002.1,560.3L1002.1,560.3L1002.1,560.3z M998.1,549.6c-0.8,0-1.6,0.2-2.3,0.7
	c-1,0.6-1.7,1.6-2,2.8c-0.3,1.2-0.1,2.3,0.6,3.3c0.6,1,1.6,1.7,2.8,2c1.2,0.3,2.3,0.1,3.3-0.6c1-0.6,1.7-1.6,2-2.8
	c0.3-1.2,0.1-2.3-0.6-3.3c-0.6-1-1.6-1.7-2.8-2C998.8,549.6,998.5,549.6,998.1,549.6z"/>
<path class="st0" d="M447.1,744.3c-0.8,0-1.5-0.1-2.3-0.3c-2.7-0.6-5-2.2-6.4-4.6c-3-4.8-1.6-11.2,3.2-14.2c2.3-1.5,5.1-1.9,7.8-1.3
	c2.7,0.6,5,2.2,6.4,4.6c1.5,2.3,1.9,5.1,1.3,7.8c-0.6,2.7-2.2,5-4.6,6.4c0,0,0,0,0,0C450.9,743.7,449,744.3,447.1,744.3z M451,740.2
	L451,740.2L451,740.2z M447.1,729.5c-0.8,0-1.6,0.2-2.3,0.7c-2.1,1.3-2.7,4-1.4,6.1c0.6,1,1.6,1.7,2.8,2c1.2,0.3,2.3,0.1,3.3-0.6
	c1-0.6,1.7-1.6,2-2.8s0.1-2.3-0.6-3.3c-0.6-1-1.6-1.7-2.8-2C447.7,729.5,447.4,729.5,447.1,729.5z"/>
<path class="st0" d="M1069,103.1c-0.8,0-1.5-0.1-2.3-0.3c-2.7-0.6-5-2.2-6.4-4.6c-1.5-2.3-1.9-5.1-1.3-7.8c0.6-2.7,2.2-5,4.6-6.4
	c2.3-1.5,5.1-1.9,7.8-1.3c2.7,0.6,5,2.2,6.4,4.6c1.5,2.3,1.9,5.1,1.3,7.8c-0.6,2.7-2.2,5-4.6,6.4c0,0,0,0,0,0
	C1072.8,102.6,1070.9,103.1,1069,103.1z M1072.9,99.1L1072.9,99.1L1072.9,99.1z M1069,88.4c-0.8,0-1.6,0.2-2.3,0.7
	c-1,0.6-1.7,1.6-2,2.8c-0.3,1.2-0.1,2.3,0.6,3.3c0.6,1,1.6,1.7,2.8,2c1.2,0.3,2.3,0.1,3.3-0.6c1-0.6,1.7-1.6,2-2.8
	c0.3-1.2,0.1-2.3-0.6-3.3c-0.6-1-1.6-1.7-2.8-2C1069.6,88.4,1069.3,88.4,1069,88.4z"/>
<path class="st0" d="M1457,300.6c-3.4,0-6.8-1.7-8.7-4.8c-1.5-2.3-1.9-5.1-1.3-7.8c0.6-2.7,2.2-5,4.6-6.4c2.3-1.5,5.1-1.9,7.8-1.3
	c2.7,0.6,5,2.2,6.4,4.6c1.5,2.3,1.9,5.1,1.3,7.8c-0.6,2.7-2.2,5-4.6,6.4c0,0,0,0,0,0C1460.7,300.1,1458.8,300.6,1457,300.6z
	 M1460.9,296.5L1460.9,296.5L1460.9,296.5z M1456.9,285.8c-0.8,0-1.6,0.2-2.3,0.7c-1,0.6-1.7,1.6-2,2.8c-0.3,1.2-0.1,2.3,0.6,3.3
	c1.3,2.1,4,2.7,6.1,1.4c1-0.6,1.7-1.6,2-2.8c0.3-1.2,0.1-2.3-0.6-3.3c-0.6-1-1.6-1.7-2.8-2C1457.6,285.9,1457.3,285.8,1456.9,285.8z
	"/>
<path class="st0" d="M2096.6,634.7c-3.4,0-6.8-1.7-8.7-4.8c-3-4.8-1.6-11.2,3.2-14.2c4.8-3,11.2-1.6,14.2,3.2
	c1.5,2.3,1.9,5.1,1.3,7.8c-0.6,2.7-2.2,5-4.6,6.4c0,0,0,0,0,0C2100.3,634.2,2098.4,634.7,2096.6,634.7z M2100.5,630.6L2100.5,630.6
	L2100.5,630.6z M2096.5,620c-0.8,0-1.6,0.2-2.4,0.7c-2.1,1.3-2.7,4-1.4,6.1c1.3,2.1,4,2.7,6.1,1.4c1-0.6,1.7-1.6,2-2.8
	c0.3-1.2,0.1-2.3-0.6-3.3C2099.5,620.7,2098,620,2096.5,620z"/>
</svg>
