<?xml version="1.0" encoding="UTF-8" standalone="no"?>
<!DOCTYPE svg PUBLIC "-//W3C//DTD SVG 1.1//EN" "http://www.w3.org/Graphics/SVG/1.1/DTD/svg11.dtd">
<svg width="100%" height="100%" viewBox="0 0 135 40" version="1.1" xmlns="http://www.w3.org/2000/svg" xmlns:xlink="http://www.w3.org/1999/xlink" xml:space="preserve" style="fill-rule:evenodd;clip-rule:evenodd;stroke-linejoin:round;stroke-miterlimit:1.41421;">
    <g>
        <path d="M130.197,40L4.729,40C2.122,40 0,37.872 0,35.267L0,4.726C0,2.12 2.122,0 4.729,0L130.197,0C132.803,0 135,2.12 135,4.726L135,35.267C135,37.872 132.803,40 130.197,40Z" style="fill:rgb(166,166,166);fill-rule:nonzero;"/>
        <path d="M134.032,35.268C134.032,37.384 132.318,39.098 130.198,39.098L4.729,39.098C2.61,39.098 0.89,37.384 0.89,35.268L0.89,4.725C0.89,2.61 2.61,0.89 4.729,0.89L130.197,0.89C132.318,0.89 134.031,2.61 134.031,4.725L134.032,35.268Z" style="fill-rule:nonzero;"/>
        <g transform="matrix(1.37957,0,0,1.37957,-19.4905,10.7541)">
            <text x="54.706px" y="14.908px" style="font-family:'DINCondensed-Bold', 'DIN Condensed';font-weight:700;font-stretch:condensed;font-size:24px;fill:white;">Github</text>
        </g>
        <g transform="matrix(1.14897,0,0,1.14897,26.7462,21.8587)">
            <g transform="matrix(1,0,0,1,-15,-15)">
                <path id="Cat" d="M19,30L15.004,30L11.004,30C11.004,30 11.015,27.628 11.004,26C5.531,27.178 4.004,23 4.004,23C3.004,21 2.004,20 2.004,20C0.004,18.812 2.004,19 2.004,19C4.004,19 5.004,21 5.004,21C6.759,23.981 9.882,23.501 11.004,23C11.004,22 11.442,20.488 12.004,20C7.636,19.508 4,17 4,12C4,7 5.004,6 6.004,5C5.802,4.507 4.965,2.685 6.035,0C6.035,0 8,0 10,3C10.991,2.009 14,2 15.001,2C16,2 19.009,2.009 20,3C22,0 23.969,0 23.969,0C25.039,2.685 24.202,4.507 24,5C25,6 26,7 26,12C26,17 22.368,19.508 18,20C18.562,20.488 19,22.21 19,23L19,30Z" style="fill:white;"/>
            </g>
        </g>
    </g>
</svg>
